<svg xmlns="http://www.w3.org/2000/svg" width="190" height="165" viewBox="0 0 190 165">
    <g fill="none" fill-rule="evenodd" stroke="#4A4A4A" stroke-width="2.26">
        <path stroke-linecap="round" stroke-linejoin="round" d="M125.432 59.243c4.768 9.73 15.624 31.72 15.624 31.72 1.367 3.576 5.29 5.11 8.787 3.415l24.927-12.082c1.754-.85 3.963-.24 4.967 1.416l2.079 3.43c.99 1.631 3.171 2.242 4.89 1.354l7.166-3.699c1.712-.883 2.308-2.89 1.281-4.564l-23.19-37.814c-1.001-1.633-.784-4.173.431-5.611l2.484-2.938c1.24-1.466 1.126-3.77-.209-5.103L151.931 6.078c-1.354-1.352-3.988-2.218-5.92-1.93l-24.895 3.725c-1.915.287-4.044 1.953-4.768 3.756l-5.07 12.61c-.718 1.787-.641 4.613.204 6.374l7.4 15.1"/>
        <path d="M114.205 13.28L88.107 4.823l-6.729-2.18c-1.742-.564-4.533-.45-6.228.254L59.52 9.384a3.213 3.213 0 0 0-1.714 4.31l.51 1.134c.75 1.675 2.752 2.5 4.47 1.843l13.137-5.03c1.717-.657 4.516-.734 6.276-.164l29.089 9.426 2.917-7.623zM139.706 58.619l7.627 21.881c.986 2.828 3.966 4.101 6.7 2.856l16.101-7.335c2.732-1.244 3.682-4.282 2.147-6.858l-11.859-19.907c-1.581-2.654-5.203-3.793-8.023-2.518L142.974 51c-2.817 1.273-4.285 4.7-3.268 7.618z"/>
        <path stroke-linecap="round" d="M190.987 87.18s9.365 6.371 5.19 28.656"/>
        <path d="M58.589 77.092c9.618 0 17.415-7.605 17.415-16.987 0-9.382-15.306-27.167-15.306-27.167-1.165-1.415-3.058-1.426-4.228.01 0 0-15.297 17.775-15.297 27.157 0 9.382 7.797 16.987 17.416 16.987z"/>
        <path fill="#FFF" stroke-linecap="round" d="M59.1 40.233s-7.355 9.625-9.952 14.825"/>
    </g>
</svg>
