<svg xmlns="http://www.w3.org/2000/svg" xmlns:xlink="http://www.w3.org/1999/xlink" width="134" height="114" viewBox="0 0 134 114">
    <defs>
        <path id="a" d="M8.387.73l79.93 10.578-27.026 100.15L.717 116.36z"/>
    </defs>
    <g fill="none" fill-rule="evenodd">
        <g transform="translate(52.478 -2)">
            <mask id="b" fill="#fff">
                <use xlink:href="#a"/>
            </mask>
            <g mask="url(#b)">
                <path stroke="#4A4A4A" stroke-width="2.264" d="M23.27 34.246s-1.623-15.194 4.698-18.556c6.322-3.363 15.222 3.313 15.222 3.313s7.484-11.453 15.203-8.988c7.72 2.465 6.785 7.828 6.938 12.54 8.273-.819 18.202 5.184 13.558 14.467-4.644 9.283-15.649 5.187-15.649 5.187"/>
                <path stroke="#4A4A4A" stroke-width="2.264" d="M54.549 27.363L61.56 41.62l4.603-5.302a4.894 4.894 0 0 0-.802-6.965l-3.728-2.913a4.998 4.998 0 0 0-7.032.856l-.052.067z"/>
                <path stroke="#4A4A4A" stroke-width="2.264" d="M42.252 30.92l1.195 20.817 13.236-15.315c1.69-2.164 1.304-5.331-.87-7.03l-3.729-2.913a5 5 0 0 0-7.034.86l-2.798 3.58zM46.927 54.21l13.776 6.868 7.6-8.15a5.013 5.013 0 0 0-.253-7.08l-3.46-3.227a5.004 5.004 0 0 0-7.088.249L46.927 54.21z"/>
                <path stroke="#4A4A4A" stroke-width="2.264" d="M24.027 31.273L37.39 51.967l5.204-6.66c3.936-5.038 3.022-12.324-2.045-16.282-5.057-3.952-12.36-3.078-16.289 1.95l-.233.298zM16.09 113.315l-33.364-26.228c.058.27.167.593.339.972 1.384 3.054 5.92 7.845 14.54 14.618 8.71 6.841 14.408 10.067 17.58 10.577.364.059.664.075.905.061z"/>
                <path stroke="#4A4A4A" stroke-width="2.264" d="M37.833 53.095c-2.174-8.087-7.076-15.628-14.071-21.392A12344.938 12344.938 0 0 1 6.849 55.544c-10.89 15.307-18.37 25.7-21.594 29.948 6.633 4.926 13.952 7.555 21.234 7.782l31.344-40.179z"/>
                <path stroke="#4A4A4A" stroke-width="2.264" d="M17.735 111.716c11.571-13.742 36.135-42.647 42.847-50.4-16.766-12.415-38.788-11.095-49.814 3.018C-.58 78.86 2.11 98.884 17.735 111.716z"/>
            </g>
        </g>
        <g stroke="#4A4A4A" stroke-width="2.264" transform="translate(0 .077)">
            <path stroke-linecap="round" d="M5.333 62.582l-1.69-23.928M58.1 38.45l-4.882 67.846c-.238 3.374-3.173 6.109-6.619 6.109H15.14c-3.417 0-6.382-2.761-6.619-6.116L6.301 76.298"/>
            <ellipse cx="30.87" cy="72.308" rx="12.348" ry="13.846"/>
            <path d="M1.132 38.868h59.475v-6.56a6.567 6.567 0 0 0-6.562-6.56H7.695a6.566 6.566 0 0 0-6.563 6.56v6.56z"/>
            <path d="M22.741 25.747h16.258v6.967H22.741z"/>
            <path d="M10.393 26.56h40.953v-5.022a5.022 5.022 0 0 0-5.014-5.021H15.407a5.019 5.019 0 0 0-5.014 5.021v5.022zM27.238 85.223c-2.416-15.754 10.098-7.114 6.975-25.402"/>
            <path stroke-linecap="round" stroke-linejoin="round" d="M32.184 16.965l6.385-15.39h19.874"/>
        </g>
    </g>
</svg>
