<svg xmlns="http://www.w3.org/2000/svg" xmlns:xlink="http://www.w3.org/1999/xlink" width="55" height="55" viewBox="0 0 55 55">
    <defs>
        <circle id="b" cx="27.5" cy="22.5" r="17.5"/>
        <filter id="a" width="200%" height="200%" x="-50%" y="-35.7%" filterUnits="objectBoundingBox">
            <feOffset dy="5" in="SourceAlpha" result="shadowOffsetOuter1"/>
            <feGaussianBlur in="shadowOffsetOuter1" result="shadowBlurOuter1" stdDeviation="5"/>
            <feColorMatrix in="shadowBlurOuter1" values="0 0 0 0 0 0 0 0 0 0 0 0 0 0 0 0 0 0 0.05 0"/>
        </filter>
    </defs>
    <g fill="none" fill-rule="evenodd">
        <g>
            <use fill="#000" filter="url(#a)" xlink:href="#b"/>
            <use fill="#FFF" xlink:href="#b"/>
        </g>
        <g fill="#D00">
            <path d="M23.63 19.32l7.758 7.757c.2.2.52.207.713.015a.506.506 0 0 0-.015-.713l-7.758-7.758a.506.506 0 0 0-.713-.014.506.506 0 0 0 .015.712z"/>
            <path d="M31.388 18.63l-7.758 7.758c-.2.2-.207.52-.015.713a.506.506 0 0 0 .713-.015l7.758-7.758c.2-.2.207-.52.015-.713a.506.506 0 0 0-.713.015z"/>
        </g>
    </g>
</svg>
