<svg xmlns="http://www.w3.org/2000/svg" width="103" height="124" viewBox="0 0 103 124">
    <g fill="none" fill-rule="evenodd">
        <path stroke="#8A8989" stroke-linecap="round" stroke-width="3" d="M79.897 59.682h21.178v49.129c0 5.828-4.741 10.553-10.589 10.553-5.848 0-10.589-4.725-10.589-10.553V59.682z"/>
        <path stroke="#8A8989" stroke-linecap="round" stroke-linejoin="round" stroke-width="3" d="M89.523 120.327H13.848c-6.57 0-11.923-6.44-11.923-14.399V1.978c5.8 7.325 8.8 10.988 9.003 10.988.203 0 3.21-3.663 9.02-10.988 6.294 7.416 9.533 11.124 9.717 11.124.184 0 3.897-3.725 11.14-11.177C47 9.321 50.193 13.02 50.383 13.02c.19 0 3.557-3.68 10.098-11.04 6.023 7.379 9.131 11.069 9.325 11.069.194 0 3.447-3.69 9.76-11.07v59.678"/>
        <path fill="#8A8989" fill-rule="nonzero" d="M30.804 39.282l2.852-.21h16.4v2.362H30.804v-2.152zm0 5.949l2.816-.228h16.436v2.38H30.804V45.23zm2.62 4.74c0-8.572 10.553-9.324 10.553-14.8a3.464 3.464 0 0 0-1.051-2.667 3.603 3.603 0 0 0-2.728-1.007 5.907 5.907 0 0 0-4.884 2.712l-2.068-2.502c1.58-2.355 4.258-3.774 7.13-3.779a7.207 7.207 0 0 1 5.437 2.014 6.928 6.928 0 0 1 2.104 5.316c0 7.89-10.553 8.748-10.553 14.924a3.796 3.796 0 0 0 1.257 3.012 3.952 3.952 0 0 0 3.164.977 8.445 8.445 0 0 0 5.99-3.097l1.782 2.94a10.771 10.771 0 0 1-7.79 3.743c-5.188 0-8.414-2.94-8.414-7.785h.071z"/>
        <path stroke="#8A8989" stroke-linecap="round" stroke-width="2" d="M13.477 34.654h7.7"/>
        <path stroke="#8A8989" stroke-linecap="round" d="M13.477 43.318h7.7"/>
        <path stroke="#8A8989" stroke-linecap="round" stroke-width="2" d="M59.682 34.654h7.701"/>
        <path stroke="#8A8989" stroke-linecap="round" d="M59.682 43.318h7.701"/>
        <path stroke="#8A8989" stroke-linecap="round" stroke-width="2" d="M86.636 71.234h6.738M86.636 79.897h6.738M86.636 89.523h6.738"/>
        <path stroke="#8A8989" stroke-linecap="round" d="M26.953 69.308h40.43M26.953 84.71h40.43M26.953 99.15h40.43"/>
        <circle cx="15.883" cy="69.79" r="2.407" fill="#8A8989" fill-rule="nonzero"/>
        <circle cx="15.883" cy="84.229" r="2.407" fill="#8A8989" fill-rule="nonzero"/>
        <circle cx="15.883" cy="99.631" r="2.407" fill="#8A8989" fill-rule="nonzero"/>
    </g>
</svg>
