<svg xmlns="http://www.w3.org/2000/svg" width="164" height="95" viewBox="0 0 164 95">
    <g fill="none" fill-rule="evenodd">
        <path stroke="#4A4A4A" stroke-linecap="round" stroke-linejoin="round" stroke-width="2" d="M42.241 16.125v-5.493c0-5.295 4.263-9.587 9.485-9.587h100.872c5.239 0 9.485 4.28 9.485 9.587v60.355c0 5.294-4.24 9.586-9.448 9.586h-40.337"/>
        <g transform="translate(1 16.815)">
            <path stroke="#4A4A4A" stroke-linecap="round" stroke-width="2" d="M74.875 76.628H9.762c-5.211 0-9.436-4.28-9.436-9.586V9.722C.326 4.428 4.59.136 9.814.136h91.521c5.24 0 9.488 4.28 9.488 9.586v57.32c0 5.294-4.241 9.586-9.451 9.586H88.897"/>
            <rect width="21.082" height="21.297" x="8.7" y="24.535" stroke="#4A4A4A" rx="2.288"/>
            <path stroke="#4A4A4A" stroke-linecap="round" d="M9.777 60.732h14.196M36.591 60.71h14.196M61.828 60.74h14.196M87.083 60.715h14.196"/>
            <path fill="#4A4A4A" d="M96.635 20.297c.864 0 1.692-.007 2.52.005.2.003.197-.076.163-.243-.123-.601-.234-1.205-.35-1.807l-.604-3.116-1.73 5.16m-4.45 3.452l1.484-3.833 2.935-7.583c.277-.716.702-1.027 1.416-1.028.755 0 1.511.003 2.267-.003.133-.001.182.037.21.187.768 3.996 1.541 7.991 2.314 11.986.053.274.053.274-.212.274-.776 0-1.552-.003-2.328.004-.135.001-.183-.037-.208-.185-.085-.498-.193-.993-.283-1.49-.025-.138-.068-.191-.208-.19-1.158.007-2.315.006-3.473 0-.125 0-.179.045-.218.168-.164.514-.336 1.025-.507 1.536-.026.08-.041.16-.157.16-1-.005-2.001-.003-3.031-.003zm-21.832-3.816l.65-1.645c.886-2.258 1.774-4.516 2.655-6.777.065-.168.148-.218.325-.216.988.01 1.977.009 2.966 0 .19 0 .25.017.163.225-1.72 4.116-3.435 8.235-5.147 12.355-.053.129-.119.16-.247.16a309.398 309.398 0 0 0-3.102 0c-.144.002-.2-.036-.239-.185-.857-3.36-1.725-6.715-2.582-10.075-.128-.503-.4-.852-.868-1.077-.937-.45-1.926-.734-2.93-.978-.084-.02-.206-.01-.156-.15.037-.108-.024-.277.205-.275 1.813.009 3.626-.003 5.44.01.765.004 1.346.515 1.49 1.281.44 2.337.874 4.675 1.31 7.013l.067.334zm13.073.74c.5.238.989.472 1.516.596.8.19 1.604.268 2.413.068.267-.066.514-.186.723-.378a.938.938 0 0 0 .054-1.356c-.312-.338-.703-.552-1.098-.756-.62-.322-1.23-.66-1.77-1.122-1.594-1.366-1.302-3.303-.439-4.495.695-.96 1.667-1.471 2.765-1.733 1.483-.353 2.946-.233 4.386.268.175.061.194.137.156.313-.173.787-.328 1.579-.493 2.388-.445-.2-.89-.366-1.358-.459-.658-.13-1.318-.189-1.98-.027a1.53 1.53 0 0 0-.622.302c-.465.385-.474.917-.02 1.319.354.315.77.525 1.179.75.563.31 1.124.621 1.621 1.043 1.049.889 1.353 2.032 1.042 3.368-.333 1.43-1.273 2.289-2.54 2.803-1.147.464-2.344.536-3.556.424a9.07 9.07 0 0 1-2.315-.504c-.183-.068-.222-.15-.18-.344.18-.815.344-1.634.516-2.468zm-5.051 3.354c-.517 0-1.035-.007-1.551.004-.18.004-.19-.056-.159-.195.832-3.67 1.66-7.341 2.49-11.012.101-.448.212-.895.302-1.346.028-.14.078-.183.23-.182 1.033.006 2.068.007 3.102-.001.184-.002.187.066.158.197-.323 1.42-.644 2.84-.965 4.259-.6 2.655-1.202 5.31-1.792 7.968-.054.239-.137.33-.407.315-.468-.025-.939-.007-1.408-.007z"/>
        </g>
    </g>
</svg>
