<svg xmlns="http://www.w3.org/2000/svg" xmlns:xlink="http://www.w3.org/1999/xlink" width="449" height="110" viewBox="0 0 449 110">
    <defs>
        <path id="a" d="M1.669 2.454h107.064V109.52H1.67z"/>
        <path id="c" d="M0 110.265h448.468V1.71H0z"/>
    </defs>
    <g fill="none" fill-rule="evenodd">
        <path stroke="#5E5F5F" stroke-width="1.49" d="M313.893 108.797H17.64c-9.29 0-16.895-7.605-16.895-16.897V18.627C.744 9.335 8.35 1.73 17.64 1.73h296.254c9.293 0 16.895 7.605 16.895 16.897V91.9c0 9.292-7.602 16.897-16.895 16.897z"/>
        <path fill="#020303" d="M68.263 54.951a14.395 14.395 0 0 1 6.86-12.084 14.748 14.748 0 0 0-11.62-6.28c-4.884-.515-9.625 2.924-12.114 2.924-2.539 0-6.374-2.876-10.505-2.79a15.464 15.464 0 0 0-13.017 7.943c-5.63 9.742-1.43 24.067 3.96 31.947 2.7 3.856 5.853 8.165 9.978 8.01 4.038-.167 5.543-2.572 10.419-2.572 4.827 0 6.24 2.572 10.45 2.477 4.334-.072 7.064-3.874 9.665-7.77a31.865 31.865 0 0 0 4.42-9 13.924 13.924 0 0 1-8.496-12.805M60.312 31.404a14.178 14.178 0 0 0 3.242-10.16 14.44 14.44 0 0 0-9.334 4.831 13.5 13.5 0 0 0-3.329 9.784 11.922 11.922 0 0 0 9.42-4.455M104.821 70.908h10.502l-5.176-15.243H110l-5.18 15.243zm11.876 4.336h-13.246l-3.183 9.394h-5.612l12.55-34.758h5.829l12.549 34.758h-5.707l-3.18-9.394zM147.338 71.97c0-5.132-2.653-8.505-6.697-8.505-3.975 0-6.648 3.445-6.648 8.505 0 5.105 2.673 8.523 6.648 8.523 4.044 0 6.697-3.346 6.697-8.523m5.346 0c0 7.877-4.214 12.934-10.573 12.934a8.607 8.607 0 0 1-7.975-4.431h-.12v12.546h-5.2v-33.72h5.034v4.214h.095a8.984 8.984 0 0 1 8.067-4.48c6.434 0 10.672 5.085 10.672 12.937M175.23 71.97c0-5.132-2.652-8.505-6.7-8.505-3.972 0-6.645 3.445-6.645 8.505 0 5.105 2.673 8.523 6.646 8.523 4.047 0 6.699-3.346 6.699-8.523m5.346 0c0 7.877-4.217 12.934-10.576 12.934a8.6 8.6 0 0 1-7.972-4.431h-.122v12.546h-5.2v-33.72h5.036v4.214h.092a8.989 8.989 0 0 1 8.07-4.48c6.432 0 10.672 5.085 10.672 12.937M199.008 74.953c.385 3.448 3.732 5.71 8.31 5.71 4.383 0 7.536-2.262 7.536-5.37 0-2.697-1.901-4.312-6.404-5.42l-4.506-1.083c-6.38-1.543-9.343-4.53-9.343-9.372 0-6 5.224-10.115 12.642-10.115 7.349 0 12.382 4.116 12.552 10.115h-5.251c-.316-3.469-3.18-5.561-7.373-5.561-4.19 0-7.057 2.119-7.057 5.2 0 2.456 1.833 3.904 6.312 5.013l3.83.939c7.131 1.686 10.09 4.547 10.09 9.634 0 6.503-5.176 10.574-13.413 10.574-7.71 0-12.913-3.979-13.25-10.264h5.325zM231.578 53.3v6h4.819v4.118h-4.82v13.968c0 2.173.966 3.183 3.085 3.183.572-.012 1.142-.05 1.71-.122v4.095c-.95.178-1.921.259-2.887.241-5.132 0-7.131-1.925-7.131-6.84V63.419h-3.687V59.3h3.687v-6h5.224zM257.925 71.97c0-5.468-2.507-8.699-6.72-8.699-4.215 0-6.724 3.255-6.724 8.7 0 5.492 2.51 8.692 6.723 8.692 4.214 0 6.72-3.2 6.72-8.693m-18.739 0c0-7.975 4.697-12.981 12.02-12.981 7.345 0 12.018 5.006 12.018 12.981 0 7.996-4.649 12.982-12.019 12.982s-12.019-4.986-12.019-12.982M267.514 59.299h4.962v4.312h.119a6.044 6.044 0 0 1 6.094-4.577 7.964 7.964 0 0 1 1.782.193v4.864a7.289 7.289 0 0 0-2.336-.313 5.244 5.244 0 0 0-5.421 5.83v15.031h-5.2V59.3zM286.87 69.634h12.669a6.09 6.09 0 0 0-5.746-6.423c-.155-.009-.313-.012-.468-.009a6.416 6.416 0 0 0-6.455 6.375v.057zm17.583 7.563c-.697 4.598-5.18 7.757-10.91 7.757-7.37 0-11.948-4.94-11.948-12.865 0-7.948 4.599-13.1 11.73-13.1 7.01 0 11.42 4.815 11.42 12.498v1.782h-17.899v.313a6.601 6.601 0 0 0 5.99 7.158c.278.021.552.03.826.018a5.733 5.733 0 0 0 5.853-3.56h4.938z"/>
        <g transform="translate(0 -.724)">
            <g transform="translate(339.735)">
                <mask id="b" fill="#fff">
                    <use xlink:href="#a"/>
                </mask>
                <path fill="#FEFEFE" d="M91.839 109.521H18.566c-9.295 0-16.897-7.605-16.897-16.897V19.35c0-9.292 7.602-16.897 16.897-16.897H91.84c9.292 0 16.894 7.605 16.894 16.897v73.273c0 9.292-7.602 16.897-16.894 16.897" mask="url(#b)"/>
            </g>
            <mask id="d" fill="#fff">
                <use xlink:href="#c"/>
            </mask>
            <path fill="#020303" d="M355.455 19.663h3.16v-3.159h-3.16z" mask="url(#d)"/>
            <path fill="#020303" d="M358.614 19.663h3.16v-3.159h-3.16z" mask="url(#d)"/>
            <path fill="#020303" d="M361.773 19.663h3.16v-3.159h-3.16z" mask="url(#d)"/>
            <path fill="#020303" d="M364.93 19.663h3.158v-3.159h-3.159zM368.088 19.663h3.159v-3.159h-3.159zM371.247 19.663h3.159v-3.159h-3.159zM374.406 19.663h3.159v-3.159h-3.159zM380.724 19.663h3.159v-3.159h-3.16zM387.042 19.663h3.159v-3.159h-3.16zM393.357 19.663h3.159v-3.159h-3.16z" mask="url(#d)"/>
            <path fill="#020303" d="M396.516 19.663h3.159v-3.159h-3.16zM405.992 19.663h3.16v-3.159h-3.16zM412.31 19.663h3.16v-3.159h-3.16z" mask="url(#d)"/>
            <path fill="#020303" d="M415.466 19.663h3.16v-3.159h-3.16z" mask="url(#d)"/>
            <path fill="#020303" d="M418.625 19.663h3.16v-3.159h-3.16z" mask="url(#d)"/>
            <path fill="#020303" d="M421.784 19.663h3.159v-3.159h-3.159zM424.943 19.663h3.159v-3.159h-3.159zM428.102 19.663h3.159v-3.159h-3.159z" mask="url(#d)"/>
            <path fill="#020303" d="M431.26 19.663h3.16v-3.159h-3.16zM355.455 22.825h3.16v-3.162h-3.16zM374.406 22.825h3.159v-3.162h-3.159zM383.883 22.825h3.159v-3.162h-3.16z" mask="url(#d)"/>
            <path fill="#020303" d="M387.042 22.825h3.159v-3.162h-3.16z" mask="url(#d)"/>
            <path fill="#020303" d="M390.198 22.825h3.159v-3.162h-3.16z" mask="url(#d)"/>
            <path fill="#020303" d="M393.357 22.825h3.159v-3.162h-3.16zM412.31 22.825h3.16v-3.162h-3.16zM431.26 22.825h3.16v-3.162h-3.16zM355.455 25.984h3.16v-3.16h-3.16zM361.773 25.984h3.16v-3.16h-3.16z" mask="url(#d)"/>
            <path fill="#020303" d="M364.93 25.984h3.158v-3.16h-3.159zM368.088 25.984h3.159v-3.16h-3.159zM374.406 25.984h3.159v-3.16h-3.159zM380.724 25.984h3.159v-3.16h-3.16z" mask="url(#d)"/>
            <path fill="#020303" d="M383.883 25.984h3.159v-3.16h-3.16z" mask="url(#d)"/>
            <path fill="#020303" d="M387.042 25.984h3.159v-3.16h-3.16zM396.516 25.984h3.159v-3.16h-3.16zM399.675 25.984h3.158v-3.16h-3.158zM412.31 25.984h3.16v-3.16h-3.16zM418.625 25.984h3.16v-3.16h-3.16z" mask="url(#d)"/>
            <path fill="#020303" d="M421.784 25.984h3.159v-3.16h-3.159zM424.943 25.984h3.159v-3.16h-3.159zM431.26 25.984h3.16v-3.16h-3.16zM355.455 29.14h3.16v-3.16h-3.16zM361.773 29.14h3.16v-3.16h-3.16z" mask="url(#d)"/>
            <path fill="#020303" d="M364.93 29.14h3.158v-3.16h-3.159zM368.088 29.14h3.159v-3.16h-3.159zM374.406 29.14h3.159v-3.16h-3.159zM380.724 29.14h3.159v-3.16h-3.16z" mask="url(#d)"/>
            <path fill="#020303" d="M383.883 29.14h3.159v-3.16h-3.16z" mask="url(#d)"/>
            <path fill="#020303" d="M387.042 29.14h3.159v-3.16h-3.16zM393.357 29.14h3.159v-3.16h-3.16z" mask="url(#d)"/>
            <path fill="#020303" d="M396.516 29.14h3.159v-3.16h-3.16zM399.675 29.14h3.158v-3.16h-3.158zM402.833 29.14h3.16v-3.16h-3.16z" mask="url(#d)"/>
            <path fill="#020303" d="M405.992 29.14h3.16v-3.16h-3.16zM412.31 29.14h3.16v-3.16h-3.16zM418.625 29.14h3.16v-3.16h-3.16z" mask="url(#d)"/>
            <path fill="#020303" d="M421.784 29.14h3.159v-3.16h-3.159zM424.943 29.14h3.159v-3.16h-3.159zM431.26 29.14h3.16v-3.16h-3.16zM355.455 32.302h3.16V29.14h-3.16zM361.773 32.302h3.16V29.14h-3.16z" mask="url(#d)"/>
            <path fill="#020303" d="M364.93 32.302h3.158V29.14h-3.159zM368.088 32.302h3.159V29.14h-3.159zM374.406 32.302h3.159V29.14h-3.159zM380.724 32.302h3.159V29.14h-3.16zM390.198 32.302h3.159V29.14h-3.16z" mask="url(#d)"/>
            <path fill="#020303" d="M393.357 32.302h3.159V29.14h-3.16z" mask="url(#d)"/>
            <path fill="#020303" d="M396.516 32.302h3.159V29.14h-3.16zM399.675 32.302h3.158V29.14h-3.158zM402.833 32.302h3.16V29.14h-3.16z" mask="url(#d)"/>
            <path fill="#020303" d="M405.992 32.302h3.16V29.14h-3.16zM412.31 32.302h3.16V29.14h-3.16zM418.625 32.302h3.16V29.14h-3.16z" mask="url(#d)"/>
            <path fill="#020303" d="M421.784 32.302h3.159V29.14h-3.159zM424.943 32.302h3.159V29.14h-3.159zM431.26 32.302h3.16V29.14h-3.16zM355.455 35.458h3.16v-3.16h-3.16zM374.406 35.458h3.159v-3.16h-3.159zM387.042 35.458h3.159v-3.16h-3.16z" mask="url(#d)"/>
            <path fill="#020303" d="M390.198 35.458h3.159v-3.16h-3.16zM405.992 35.458h3.16v-3.16h-3.16zM412.31 35.458h3.16v-3.16h-3.16zM431.26 35.458h3.16v-3.16h-3.16zM355.455 38.617h3.16v-3.16h-3.16z" mask="url(#d)"/>
            <path fill="#020303" d="M358.614 38.617h3.16v-3.16h-3.16z" mask="url(#d)"/>
            <path fill="#020303" d="M361.773 38.617h3.16v-3.16h-3.16z" mask="url(#d)"/>
            <path fill="#020303" d="M364.93 38.617h3.158v-3.16h-3.159zM368.088 38.617h3.159v-3.16h-3.159zM371.247 38.617h3.159v-3.16h-3.159zM374.406 38.617h3.159v-3.16h-3.159zM380.724 38.617h3.159v-3.16h-3.16zM387.042 38.617h3.159v-3.16h-3.16zM393.357 38.617h3.159v-3.16h-3.16zM399.675 38.617h3.158v-3.16h-3.158zM405.992 38.617h3.16v-3.16h-3.16zM412.31 38.617h3.16v-3.16h-3.16z" mask="url(#d)"/>
            <path fill="#020303" d="M415.466 38.617h3.16v-3.16h-3.16z" mask="url(#d)"/>
            <path fill="#020303" d="M418.625 38.617h3.16v-3.16h-3.16z" mask="url(#d)"/>
            <path fill="#020303" d="M421.784 38.617h3.159v-3.16h-3.159zM424.943 38.617h3.159v-3.16h-3.159zM428.102 38.617h3.159v-3.16h-3.159z" mask="url(#d)"/>
            <path fill="#020303" d="M431.26 38.617h3.16v-3.16h-3.16zM387.042 41.775h3.159v-3.161h-3.16zM393.357 41.775h3.159v-3.161h-3.16zM402.833 41.775h3.16v-3.161h-3.16z" mask="url(#d)"/>
            <path fill="#020303" d="M405.992 41.775h3.16v-3.161h-3.16zM355.455 44.934h3.16v-3.159h-3.16z" mask="url(#d)"/>
            <path fill="#020303" d="M358.614 44.934h3.16v-3.159h-3.16z" mask="url(#d)"/>
            <path fill="#020303" d="M361.773 44.934h3.16v-3.159h-3.16z" mask="url(#d)"/>
            <path fill="#020303" d="M364.93 44.934h3.158v-3.159h-3.159zM374.406 44.934h3.159v-3.159h-3.159zM380.724 44.934h3.159v-3.159h-3.16zM387.042 44.934h3.159v-3.159h-3.16z" mask="url(#d)"/>
            <path fill="#020303" d="M390.198 44.934h3.159v-3.159h-3.16z" mask="url(#d)"/>
            <path fill="#020303" d="M393.357 44.934h3.159v-3.159h-3.16zM399.675 44.934h3.158v-3.159h-3.158zM405.992 44.934h3.16v-3.159h-3.16z" mask="url(#d)"/>
            <path fill="#020303" d="M409.151 44.934h3.16v-3.159h-3.16zM418.625 44.934h3.16v-3.159h-3.16z" mask="url(#d)"/>
            <path fill="#020303" d="M421.784 44.934h3.159v-3.159h-3.159zM424.943 44.934h3.159v-3.159h-3.159zM431.26 44.934h3.16v-3.159h-3.16zM368.088 48.09h3.159v-3.159h-3.159zM377.565 48.09h3.159v-3.159h-3.16zM387.042 48.09h3.159v-3.159h-3.16zM393.357 48.09h3.159v-3.159h-3.16zM405.992 48.09h3.16v-3.159h-3.16zM415.466 48.09h3.16v-3.159h-3.16z" mask="url(#d)"/>
            <path fill="#020303" d="M428.102 48.09h3.159v-3.159h-3.159zM355.455 51.252h3.16V48.09h-3.16z" mask="url(#d)"/>
            <path fill="#020303" d="M358.614 51.252h3.16V48.09h-3.16z" mask="url(#d)"/>
            <path fill="#020303" d="M361.773 51.252h3.16V48.09h-3.16zM368.088 51.252h3.159V48.09h-3.159zM371.247 51.252h3.159V48.09h-3.159zM374.406 51.252h3.159V48.09h-3.159z" mask="url(#d)"/>
            <path fill="#020303" d="M377.565 51.252h3.159V48.09h-3.16zM383.883 51.252h3.159V48.09h-3.16z" mask="url(#d)"/>
            <path fill="#020303" d="M387.042 51.252h3.159V48.09h-3.16z" mask="url(#d)"/>
            <path fill="#020303" d="M390.198 51.252h3.159V48.09h-3.16z" mask="url(#d)"/>
            <path fill="#020303" d="M393.357 51.252h3.159V48.09h-3.16z" mask="url(#d)"/>
            <path fill="#020303" d="M396.516 51.252h3.159V48.09h-3.16zM399.675 51.252h3.158V48.09h-3.158zM405.992 51.252h3.16V48.09h-3.16zM412.31 51.252h3.16V48.09h-3.16z" mask="url(#d)"/>
            <path fill="#020303" d="M415.466 51.252h3.16V48.09h-3.16zM355.455 54.411h3.16v-3.159h-3.16zM364.93 54.411h3.158v-3.159h-3.159zM368.088 54.411h3.159v-3.159h-3.159zM371.247 54.411h3.159v-3.159h-3.159zM383.883 54.411h3.159v-3.159h-3.16z" mask="url(#d)"/>
            <path fill="#020303" d="M387.042 54.411h3.159v-3.159h-3.16zM396.516 54.411h3.159v-3.159h-3.16zM399.675 54.411h3.158v-3.159h-3.158zM402.833 54.411h3.16v-3.159h-3.16zM409.151 54.411h3.16v-3.159h-3.16z" mask="url(#d)"/>
            <path fill="#020303" d="M412.31 54.411h3.16v-3.159h-3.16zM421.784 54.411h3.159v-3.159h-3.159zM424.943 54.411h3.159v-3.159h-3.159zM358.614 57.567h3.16v-3.159h-3.16z" mask="url(#d)"/>
            <path fill="#020303" d="M361.773 57.567h3.16v-3.159h-3.16zM368.088 57.567h3.159v-3.159h-3.159zM374.406 57.567h3.159v-3.159h-3.159zM383.883 57.567h3.159v-3.159h-3.16z" mask="url(#d)"/>
            <path fill="#020303" d="M387.042 57.567h3.159v-3.159h-3.16zM393.357 57.567h3.159v-3.159h-3.16zM399.675 57.567h3.158v-3.159h-3.158zM409.151 57.567h3.16v-3.159h-3.16z" mask="url(#d)"/>
            <path fill="#020303" d="M412.31 57.567h3.16v-3.159h-3.16zM418.625 57.567h3.16v-3.159h-3.16zM424.943 57.567h3.159v-3.159h-3.159zM428.102 57.567h3.159v-3.159h-3.159z" mask="url(#d)"/>
            <path fill="#020303" d="M431.26 57.567h3.16v-3.159h-3.16zM358.614 60.726h3.16v-3.159h-3.16zM364.93 60.726h3.158v-3.159h-3.159zM368.088 60.726h3.159v-3.159h-3.159zM380.724 60.726h3.159v-3.159h-3.16zM390.198 60.726h3.159v-3.159h-3.16z" mask="url(#d)"/>
            <path fill="#020303" d="M393.357 60.726h3.159v-3.159h-3.16zM402.833 60.726h3.16v-3.159h-3.16zM409.151 60.726h3.16v-3.159h-3.16z" mask="url(#d)"/>
            <path fill="#020303" d="M412.31 60.726h3.16v-3.159h-3.16z" mask="url(#d)"/>
            <path fill="#020303" d="M415.466 60.726h3.16v-3.159h-3.16z" mask="url(#d)"/>
            <path fill="#020303" d="M418.625 60.726h3.16v-3.159h-3.16zM431.26 60.726h3.16v-3.159h-3.16zM358.614 63.885h3.16v-3.162h-3.16z" mask="url(#d)"/>
            <path fill="#020303" d="M361.773 63.885h3.16v-3.162h-3.16z" mask="url(#d)"/>
            <path fill="#020303" d="M364.93 63.885h3.158v-3.162h-3.159zM371.247 63.885h3.159v-3.162h-3.159zM374.406 63.885h3.159v-3.162h-3.159z" mask="url(#d)"/>
            <path fill="#020303" d="M377.565 63.885h3.159v-3.162h-3.16zM383.883 63.885h3.159v-3.162h-3.16zM390.198 63.885h3.159v-3.162h-3.16zM396.516 63.885h3.159v-3.162h-3.16zM399.675 63.885h3.158v-3.162h-3.158zM405.992 63.885h3.16v-3.162h-3.16z" mask="url(#d)"/>
            <path fill="#020303" d="M409.151 63.885h3.16v-3.162h-3.16z" mask="url(#d)"/>
            <path fill="#020303" d="M412.31 63.885h3.16v-3.162h-3.16zM418.625 63.885h3.16v-3.162h-3.16zM424.943 63.885h3.159v-3.162h-3.159zM428.102 63.885h3.159v-3.162h-3.159zM355.455 67.044h3.16v-3.159h-3.16zM364.93 67.044h3.158v-3.159h-3.159zM371.247 67.044h3.159v-3.159h-3.159zM377.565 67.044h3.159v-3.159h-3.16zM390.198 67.044h3.159v-3.159h-3.16zM402.833 67.044h3.16v-3.159h-3.16z" mask="url(#d)"/>
            <path fill="#020303" d="M405.992 67.044h3.16v-3.159h-3.16z" mask="url(#d)"/>
            <path fill="#020303" d="M409.151 67.044h3.16v-3.159h-3.16zM415.466 67.044h3.16v-3.159h-3.16z" mask="url(#d)"/>
            <path fill="#020303" d="M418.625 67.044h3.16v-3.159h-3.16zM431.26 67.044h3.16v-3.159h-3.16zM364.93 70.2h3.158v-3.159h-3.159zM368.088 70.2h3.159v-3.159h-3.159zM371.247 70.2h3.159v-3.159h-3.159zM374.406 70.2h3.159v-3.159h-3.159z" mask="url(#d)"/>
            <path fill="#020303" d="M377.565 70.2h3.159v-3.159h-3.16zM383.883 70.2h3.159v-3.159h-3.16z" mask="url(#d)"/>
            <path fill="#020303" d="M387.042 70.2h3.159v-3.159h-3.16zM393.357 70.2h3.159v-3.159h-3.16zM399.675 70.2h3.158v-3.159h-3.158zM402.833 70.2h3.16v-3.159h-3.16z" mask="url(#d)"/>
            <path fill="#020303" d="M405.992 70.2h3.16v-3.159h-3.16z" mask="url(#d)"/>
            <path fill="#020303" d="M409.151 70.2h3.16v-3.159h-3.16z" mask="url(#d)"/>
            <path fill="#020303" d="M412.31 70.2h3.16v-3.159h-3.16z" mask="url(#d)"/>
            <path fill="#020303" d="M415.466 70.2h3.16v-3.159h-3.16z" mask="url(#d)"/>
            <path fill="#020303" d="M418.625 70.2h3.16v-3.159h-3.16z" mask="url(#d)"/>
            <path fill="#020303" d="M421.784 70.2h3.159v-3.159h-3.159zM424.943 70.2h3.159v-3.159h-3.159zM428.102 70.2h3.159v-3.159h-3.159z" mask="url(#d)"/>
            <path fill="#020303" d="M431.26 70.2h3.16v-3.159h-3.16zM380.724 73.362h3.159V70.2h-3.16z" mask="url(#d)"/>
            <path fill="#020303" d="M383.883 73.362h3.159V70.2h-3.16z" mask="url(#d)"/>
            <path fill="#020303" d="M387.042 73.362h3.159V70.2h-3.16zM405.992 73.362h3.16V70.2h-3.16zM418.625 73.362h3.16V70.2h-3.16zM424.943 73.362h3.159V70.2h-3.159zM431.26 73.362h3.16V70.2h-3.16zM355.455 76.52h3.16v-3.158h-3.16z" mask="url(#d)"/>
            <path fill="#020303" d="M358.614 76.52h3.16v-3.158h-3.16z" mask="url(#d)"/>
            <path fill="#020303" d="M361.773 76.52h3.16v-3.158h-3.16z" mask="url(#d)"/>
            <path fill="#020303" d="M364.93 76.52h3.158v-3.158h-3.159zM368.088 76.52h3.159v-3.158h-3.159zM371.247 76.52h3.159v-3.158h-3.159zM374.406 76.52h3.159v-3.158h-3.159zM396.516 76.52h3.159v-3.158h-3.16zM399.675 76.52h3.158v-3.158h-3.158zM405.992 76.52h3.16v-3.158h-3.16zM412.31 76.52h3.16v-3.158h-3.16zM418.625 76.52h3.16v-3.158h-3.16zM424.943 76.52h3.159v-3.158h-3.159zM428.102 76.52h3.159v-3.158h-3.159z" mask="url(#d)"/>
            <path fill="#020303" d="M431.26 76.52h3.16v-3.158h-3.16zM355.455 79.677h3.16v-3.16h-3.16zM374.406 79.677h3.159v-3.16h-3.159zM390.198 79.677h3.159v-3.16h-3.16zM396.516 79.677h3.159v-3.16h-3.16zM399.675 79.677h3.158v-3.16h-3.158zM402.833 79.677h3.16v-3.16h-3.16z" mask="url(#d)"/>
            <path fill="#020303" d="M405.992 79.677h3.16v-3.16h-3.16zM418.625 79.677h3.16v-3.16h-3.16zM355.455 82.839h3.16v-3.162h-3.16zM361.773 82.839h3.16v-3.162h-3.16z" mask="url(#d)"/>
            <path fill="#020303" d="M364.93 82.839h3.158v-3.162h-3.159zM368.088 82.839h3.159v-3.162h-3.159zM374.406 82.839h3.159v-3.162h-3.159zM387.042 82.839h3.159v-3.162h-3.16zM396.516 82.839h3.159v-3.162h-3.16zM399.675 82.839h3.158v-3.162h-3.158zM405.992 82.839h3.16v-3.162h-3.16z" mask="url(#d)"/>
            <path fill="#020303" d="M409.151 82.839h3.16v-3.162h-3.16z" mask="url(#d)"/>
            <path fill="#020303" d="M412.31 82.839h3.16v-3.162h-3.16z" mask="url(#d)"/>
            <path fill="#020303" d="M415.466 82.839h3.16v-3.162h-3.16z" mask="url(#d)"/>
            <path fill="#020303" d="M418.625 82.839h3.16v-3.162h-3.16z" mask="url(#d)"/>
            <path fill="#020303" d="M421.784 82.839h3.159v-3.162h-3.159zM428.102 82.839h3.159v-3.162h-3.159zM355.455 85.995h3.16v-3.16h-3.16zM361.773 85.995h3.16v-3.16h-3.16z" mask="url(#d)"/>
            <path fill="#020303" d="M364.93 85.995h3.158v-3.16h-3.159zM368.088 85.995h3.159v-3.16h-3.159zM374.406 85.995h3.159v-3.16h-3.159zM380.724 85.995h3.159v-3.16h-3.16z" mask="url(#d)"/>
            <path fill="#020303" d="M383.883 85.995h3.159v-3.16h-3.16zM405.992 85.995h3.16v-3.16h-3.16zM412.31 85.995h3.16v-3.16h-3.16zM418.625 85.995h3.16v-3.16h-3.16z" mask="url(#d)"/>
            <path fill="#020303" d="M421.784 85.995h3.159v-3.16h-3.159zM424.943 85.995h3.159v-3.16h-3.159zM428.102 85.995h3.159v-3.16h-3.159z" mask="url(#d)"/>
            <path fill="#020303" d="M431.26 85.995h3.16v-3.16h-3.16zM355.455 89.154h3.16v-3.16h-3.16zM361.773 89.154h3.16v-3.16h-3.16z" mask="url(#d)"/>
            <path fill="#020303" d="M364.93 89.154h3.158v-3.16h-3.159zM368.088 89.154h3.159v-3.16h-3.159zM374.406 89.154h3.159v-3.16h-3.159zM380.724 89.154h3.159v-3.16h-3.16zM387.042 89.154h3.159v-3.16h-3.16zM399.675 89.154h3.158v-3.16h-3.158zM402.833 89.154h3.16v-3.16h-3.16zM409.151 89.154h3.16v-3.16h-3.16z" mask="url(#d)"/>
            <path fill="#020303" d="M412.31 89.154h3.16v-3.16h-3.16zM418.625 89.154h3.16v-3.16h-3.16zM424.943 89.154h3.159v-3.16h-3.159zM428.102 89.154h3.159v-3.16h-3.159zM355.455 92.313h3.16V89.15h-3.16zM374.406 92.313h3.159V89.15h-3.159zM380.724 92.313h3.159V89.15h-3.16zM387.042 92.313h3.159V89.15h-3.16z" mask="url(#d)"/>
            <path fill="#020303" d="M390.198 92.313h3.159V89.15h-3.16z" mask="url(#d)"/>
            <path fill="#020303" d="M393.357 92.313h3.159V89.15h-3.16z" mask="url(#d)"/>
            <path fill="#020303" d="M396.516 92.313h3.159V89.15h-3.16zM399.675 92.313h3.158V89.15h-3.158zM409.151 92.313h3.16V89.15h-3.16z" mask="url(#d)"/>
            <path fill="#020303" d="M412.31 92.313h3.16V89.15h-3.16zM418.625 92.313h3.16V89.15h-3.16zM424.943 92.313h3.159V89.15h-3.159zM355.455 95.472h3.16v-3.16h-3.16z" mask="url(#d)"/>
            <path fill="#020303" d="M358.614 95.472h3.16v-3.16h-3.16z" mask="url(#d)"/>
            <path fill="#020303" d="M361.773 95.472h3.16v-3.16h-3.16z" mask="url(#d)"/>
            <path fill="#020303" d="M364.93 95.472h3.158v-3.16h-3.159zM368.088 95.472h3.159v-3.16h-3.159zM371.247 95.472h3.159v-3.16h-3.159zM374.406 95.472h3.159v-3.16h-3.159zM380.724 95.472h3.159v-3.16h-3.16z" mask="url(#d)"/>
            <path fill="#020303" d="M383.883 95.472h3.159v-3.16h-3.16zM390.198 95.472h3.159v-3.16h-3.16zM415.466 95.472h3.16v-3.16h-3.16z" mask="url(#d)"/>
            <path fill="#020303" d="M418.625 95.472h3.16v-3.16h-3.16z" mask="url(#d)"/>
            <path fill="#020303" d="M421.784 95.472h3.159v-3.16h-3.159zM424.943 95.472h3.159v-3.16h-3.159zM428.102 95.472h3.159v-3.16h-3.159z" mask="url(#d)"/>
            <path fill="#020303" d="M431.26 95.472h3.16v-3.16h-3.16z" mask="url(#d)"/>
        </g>
    </g>
</svg>
