<svg xmlns="http://www.w3.org/2000/svg" xmlns:xlink="http://www.w3.org/1999/xlink" width="449" height="110" viewBox="0 0 449 110">
    <defs>
        <path id="a" d="M0 110.265h448.468V1.71H0z"/>
        <path id="c" d="M2.947 1.657c-.772.814-1.224 2.08-1.224 3.722v58.58c0 1.64.452 2.906 1.224 3.723l.197.193 32.817-32.817v-.775L3.144 1.466l-.197.191z"/>
        <path id="e" d="M.2 13.423v.774L11.14 25.14l.247-.14 12.96-7.367c3.702-2.1 3.702-5.543 0-7.647L11.388 2.62l-.247-.14L.2 13.422z"/>
        <path id="g" d="M2.947 34.9c1.222 1.294 3.24 1.455 5.505.164l38.697-21.987L35.96 1.889 2.947 34.9z"/>
        <linearGradient id="h" x1="86.247%" x2="-50.138%" y1="17.843%" y2="194.808%">
            <stop offset="0%" stop-color="#EE4149"/>
            <stop offset="100%" stop-color="#C31E63"/>
        </linearGradient>
        <path id="j" d="M2.947 1.657l33.014 33.014L47.15 23.48 8.452 1.495C7.388.891 6.38.605 5.483.605c-1.013 0-1.886.367-2.536 1.052"/>
        <path id="l" d="M1.67 2.453h107.063V109.52H1.67z"/>
        <path id="n" d="M0 110.265h448.468V1.71H0z"/>
    </defs>
    <g fill="none" fill-rule="evenodd">
        <g transform="translate(0 -.723)">
            <path stroke="#5E5E5E" stroke-width="1.49" d="M313.892 109.52H17.64c-9.292 0-16.895-7.605-16.895-16.897V19.351c0-9.292 7.603-16.898 16.895-16.898h296.252c9.292 0 16.894 7.606 16.894 16.898v73.272c0 9.292-7.602 16.897-16.894 16.897z"/>
            <mask id="b" fill="#fff">
                <use xlink:href="#a"/>
            </mask>
            <path fill="#010202" d="M271.213 82.02h4.941V48.903h-4.941v33.115zm44.52-21.19l-5.665 14.359h-.173l-5.877-14.359h-5.328l8.82 20.069-5.027 11.16h5.153l13.592-31.229h-5.495zm-28.031 17.425c-1.621 0-3.88-.807-3.88-2.81 0-2.557 2.816-3.537 5.242-3.537 2.175 0 3.195.467 4.518 1.108-.385 3.067-3.028 5.24-5.88 5.24zm.596-18.149c-3.58 0-7.286 1.577-8.821 5.07l4.39 1.832c.935-1.833 2.682-2.429 4.517-2.429 2.554 0 5.153 1.535 5.198 4.262v.34c-.897-.513-2.813-1.279-5.159-1.279-4.726 0-9.542 2.599-9.542 7.457 0 4.431 3.877 7.286 8.225 7.286 3.32 0 5.153-1.493 6.303-3.24h.173v2.558h4.768V69.264c0-5.877-4.387-9.158-10.052-9.158zm-30.546 4.757h-7.03V53.51h7.03c3.692 0 5.793 3.06 5.793 5.677 0 2.566-2.101 5.675-5.793 5.675zm-.128-15.962H245.78v33.118h4.942V69.473h6.902c5.477 0 10.865-3.967 10.865-10.285 0-6.32-5.388-10.287-10.865-10.287zm-64.583 29.36c-3.412 0-6.273-2.858-6.273-6.783 0-3.97 2.86-6.872 6.273-6.872 3.37 0 6.017 2.903 6.017 6.872 0 3.925-2.646 6.783-6.017 6.783zm5.677-15.577h-.173c-1.108-1.32-3.242-2.515-5.93-2.515-5.636 0-10.797 4.95-10.797 11.31 0 6.314 5.161 11.22 10.797 11.22 2.688 0 4.822-1.192 5.93-2.56h.173v1.624c0 4.31-2.306 6.613-6.02 6.613-3.03 0-4.905-2.176-5.674-4.011l-4.312 1.79c1.24 2.987 4.524 6.658 9.986 6.658 5.806 0 10.714-3.415 10.714-11.736V60.851h-4.694v1.833zm8.106 19.335h4.95V48.904h-4.95v33.115zm12.249-10.925c-.129-4.354 3.373-6.571 5.888-6.571 1.961 0 3.627.98 4.184 2.387l-10.072 4.184zm15.362-3.758c-.936-2.518-3.797-7.167-9.644-7.167-5.805 0-10.627 4.565-10.627 11.265 0 6.315 4.78 11.265 11.182 11.265 5.164 0 8.153-3.156 9.39-4.992l-3.844-2.56c-1.279 1.878-3.028 3.114-5.546 3.114-2.519 0-4.31-1.153-5.463-3.415l15.065-6.228-.513-1.282zm-120.019-3.71v4.777h11.438c-.34 2.691-1.237 4.652-2.602 6.02-1.663 1.663-4.267 3.499-8.836 3.499-7.039 0-12.543-5.678-12.543-12.72 0-7.039 5.504-12.713 12.543-12.713 3.803 0 6.577 1.493 8.622 3.412l3.373-3.373c-2.86-2.73-6.657-4.822-11.995-4.822-9.643 0-17.752 7.853-17.752 17.496 0 9.644 8.109 17.497 17.752 17.497 5.21 0 9.134-1.705 12.207-4.906 3.159-3.159 4.142-7.596 4.142-11.181 0-1.109-.086-2.134-.259-2.986h-16.09zm29.349 14.635c-3.413 0-6.36-2.816-6.36-6.827 0-4.053 2.947-6.828 6.36-6.828 3.415 0 6.36 2.775 6.36 6.828 0 4.011-2.945 6.827-6.36 6.827zm0-18.092c-6.232 0-11.31 4.738-11.31 11.265 0 6.488 5.078 11.265 11.31 11.265 6.231 0 11.31-4.777 11.31-11.265 0-6.527-5.079-11.265-11.31-11.265zm24.67 18.092c-3.413 0-6.358-2.816-6.358-6.827 0-4.053 2.945-6.828 6.357-6.828 3.415 0 6.36 2.775 6.36 6.828 0 4.011-2.945 6.827-6.36 6.827zm0-18.092c-6.23 0-11.308 4.738-11.308 11.265 0 6.488 5.079 11.265 11.307 11.265 6.232 0 11.31-4.777 11.31-11.265 0-6.527-5.078-11.265-11.31-11.265z" mask="url(#b)"/>
        </g>
        <g transform="translate(23.841 20.138)">
            <mask id="d" fill="#fff">
                <use xlink:href="#c"/>
            </mask>
            <path fill="#3CC1EF" d="M2.947 1.657c-.772.814-1.224 2.08-1.224 3.722v58.58c0 1.64.452 2.906 1.224 3.723l.197.193 32.817-32.817v-.775L3.144 1.466l-.197.191z" mask="url(#d)"/>
        </g>
        <g transform="translate(59.603 40.999)">
            <mask id="f" fill="#fff">
                <use xlink:href="#e"/>
            </mask>
            <path fill="#FCCF09" d="M.2 13.423v.774L11.14 25.14l.247-.14 12.96-7.367c3.702-2.1 3.702-5.543 0-7.647L11.388 2.62l-.247-.14L.2 13.422z" mask="url(#f)"/>
        </g>
        <g transform="translate(23.841 52.92)">
            <mask id="i" fill="#fff">
                <use xlink:href="#g"/>
            </mask>
            <path fill="url(#h)" d="M2.947 34.9c1.222 1.294 3.24 1.455 5.505.164l38.697-21.987L35.96 1.889 2.947 34.9z" mask="url(#i)"/>
        </g>
        <g transform="translate(23.841 20.138)">
            <mask id="k" fill="#fff">
                <use xlink:href="#j"/>
            </mask>
            <path fill="#66BE69" d="M2.947 1.657l33.014 33.014L47.15 23.48 8.452 1.495C7.388.891 6.38.605 5.483.605c-1.013 0-1.886.367-2.536 1.052" mask="url(#k)"/>
        </g>
        <g transform="translate(0 -.723)">
            <g transform="translate(339.735)">
                <mask id="m" fill="#fff">
                    <use xlink:href="#l"/>
                </mask>
                <path fill="#FEFEFE" d="M91.84 109.52H18.564c-9.292 0-16.894-7.605-16.894-16.897V19.351c0-9.292 7.602-16.898 16.894-16.898H91.84c9.292 0 16.894 7.606 16.894 16.898v73.272c0 9.292-7.602 16.897-16.894 16.897" mask="url(#m)"/>
            </g>
            <mask id="o" fill="#fff">
                <use xlink:href="#n"/>
            </mask>
            <path fill="#020303" d="M355.452 19.669h3.162v-3.16h-3.162zM358.614 19.669h3.16v-3.16h-3.16z" mask="url(#o)"/>
            <path fill="#020303" d="M361.77 19.669h3.16v-3.16h-3.16z" mask="url(#o)"/>
            <path fill="#020303" d="M364.93 19.669h3.161v-3.16h-3.162zM368.091 19.669h3.159v-3.16h-3.159z" mask="url(#o)"/>
            <path fill="#020303" d="M371.247 19.669h3.159v-3.16h-3.159zM374.406 19.669h3.162v-3.16h-3.162zM380.724 19.669h3.159v-3.16h-3.16zM390.2 19.669h3.16v-3.16h-3.16z" mask="url(#o)"/>
            <path fill="#020303" d="M393.357 19.669h3.162v-3.16h-3.162zM405.992 19.669h3.16v-3.16h-3.16zM412.307 19.669h3.162v-3.16h-3.162zM415.47 19.669h3.158v-3.16h-3.159z" mask="url(#o)"/>
            <path fill="#020303" d="M418.628 19.669h3.16v-3.16h-3.16z" mask="url(#o)"/>
            <path fill="#020303" d="M421.784 19.669h3.162v-3.16h-3.162zM424.946 19.669h3.159v-3.16h-3.159z" mask="url(#o)"/>
            <path fill="#020303" d="M428.102 19.669h3.159v-3.16h-3.159z" mask="url(#o)"/>
            <path fill="#020303" d="M431.26 19.669h3.16v-3.16h-3.16zM355.452 22.828h3.162v-3.16h-3.162zM374.406 22.828h3.162v-3.16h-3.162zM383.88 22.828h3.162v-3.16h-3.162z" mask="url(#o)"/>
            <path fill="#020303" d="M387.042 22.828h3.159v-3.16h-3.16zM396.519 22.828h3.158v-3.16h-3.158z" mask="url(#o)"/>
            <path fill="#020303" d="M399.675 22.828h3.158v-3.16h-3.158zM405.992 22.828h3.16v-3.16h-3.16zM412.307 22.828h3.162v-3.16h-3.162zM431.26 22.828h3.16v-3.16h-3.16zM355.452 25.987h3.162v-3.162h-3.162zM361.77 25.987h3.16v-3.162h-3.16z" mask="url(#o)"/>
            <path fill="#020303" d="M364.93 25.987h3.161v-3.162h-3.162zM368.091 25.987h3.159v-3.162h-3.159zM374.406 25.987h3.162v-3.162h-3.162zM387.042 25.987h3.159v-3.162h-3.16zM393.357 25.987h3.162v-3.162h-3.162zM396.519 25.987h3.158v-3.162h-3.158zM402.833 25.987h3.162v-3.162h-3.162z" mask="url(#o)"/>
            <path fill="#020303" d="M405.992 25.987h3.16v-3.162h-3.16zM412.307 25.987h3.162v-3.162h-3.162zM418.628 25.987h3.16v-3.162h-3.16z" mask="url(#o)"/>
            <path fill="#020303" d="M421.784 25.987h3.162v-3.162h-3.162zM424.946 25.987h3.159v-3.162h-3.159zM431.26 25.987h3.16v-3.162h-3.16zM355.452 29.146h3.162v-3.16h-3.162zM361.77 29.146h3.16v-3.16h-3.16z" mask="url(#o)"/>
            <path fill="#020303" d="M364.93 29.146h3.161v-3.16h-3.162zM368.091 29.146h3.159v-3.16h-3.159zM374.406 29.146h3.162v-3.16h-3.162zM393.357 29.146h3.162v-3.16h-3.162zM396.519 29.146h3.158v-3.16h-3.158z" mask="url(#o)"/>
            <path fill="#020303" d="M399.675 29.146h3.158v-3.16h-3.158zM405.992 29.146h3.16v-3.16h-3.16zM412.307 29.146h3.162v-3.16h-3.162zM418.628 29.146h3.16v-3.16h-3.16z" mask="url(#o)"/>
            <path fill="#020303" d="M421.784 29.146h3.162v-3.16h-3.162zM424.946 29.146h3.159v-3.16h-3.159zM431.26 29.146h3.16v-3.16h-3.16zM355.452 32.305h3.162v-3.16h-3.162zM361.77 32.305h3.16v-3.16h-3.16z" mask="url(#o)"/>
            <path fill="#020303" d="M364.93 32.305h3.161v-3.16h-3.162zM368.091 32.305h3.159v-3.16h-3.159zM374.406 32.305h3.162v-3.16h-3.162zM383.88 32.305h3.162v-3.16h-3.162zM390.2 32.305h3.16v-3.16h-3.16zM405.992 32.305h3.16v-3.16h-3.16zM412.307 32.305h3.162v-3.16h-3.162zM418.628 32.305h3.16v-3.16h-3.16z" mask="url(#o)"/>
            <path fill="#020303" d="M421.784 32.305h3.162v-3.16h-3.162zM424.946 32.305h3.159v-3.16h-3.159zM431.26 32.305h3.16v-3.16h-3.16zM355.452 35.464h3.162v-3.162h-3.162zM374.406 35.464h3.162v-3.162h-3.162zM387.042 35.464h3.159v-3.162h-3.16zM393.357 35.464h3.162v-3.162h-3.162zM399.675 35.464h3.158v-3.162h-3.158zM405.992 35.464h3.16v-3.162h-3.16zM412.307 35.464h3.162v-3.162h-3.162z" mask="url(#o)"/>
            <path fill="#020303" d="M431.26 35.464h3.16v-3.162h-3.16zM355.452 38.623h3.162v-3.16h-3.162zM358.614 38.623h3.16v-3.16h-3.16z" mask="url(#o)"/>
            <path fill="#020303" d="M361.77 38.623h3.16v-3.16h-3.16z" mask="url(#o)"/>
            <path fill="#020303" d="M364.93 38.623h3.161v-3.16h-3.162zM368.091 38.623h3.159v-3.16h-3.159z" mask="url(#o)"/>
            <path fill="#020303" d="M371.247 38.623h3.159v-3.16h-3.159zM374.406 38.623h3.162v-3.16h-3.162zM380.724 38.623h3.159v-3.16h-3.16zM387.042 38.623h3.159v-3.16h-3.16zM393.357 38.623h3.162v-3.16h-3.162zM399.675 38.623h3.158v-3.16h-3.158zM405.992 38.623h3.16v-3.16h-3.16zM412.307 38.623h3.162v-3.16h-3.162zM415.47 38.623h3.158v-3.16h-3.159z" mask="url(#o)"/>
            <path fill="#020303" d="M418.628 38.623h3.16v-3.16h-3.16z" mask="url(#o)"/>
            <path fill="#020303" d="M421.784 38.623h3.162v-3.16h-3.162zM424.946 38.623h3.159v-3.16h-3.159z" mask="url(#o)"/>
            <path fill="#020303" d="M428.102 38.623h3.159v-3.16h-3.159z" mask="url(#o)"/>
            <path fill="#020303" d="M431.26 38.623h3.16v-3.16h-3.16zM380.724 41.778h3.159V38.62h-3.16zM387.042 41.778h3.159V38.62h-3.16z" mask="url(#o)"/>
            <path fill="#020303" d="M390.2 41.778h3.16V38.62h-3.16zM396.519 41.778h3.158V38.62h-3.158z" mask="url(#o)"/>
            <path fill="#020303" d="M399.675 41.778h3.158V38.62h-3.158zM405.992 41.778h3.16V38.62h-3.16zM355.452 44.94h3.162v-3.162h-3.162zM358.614 44.94h3.16v-3.162h-3.16zM364.93 44.94h3.161v-3.162h-3.162zM368.091 44.94h3.159v-3.162h-3.159zM374.406 44.94h3.162v-3.162h-3.162zM383.88 44.94h3.162v-3.162h-3.162z" mask="url(#o)"/>
            <path fill="#020303" d="M387.042 44.94h3.159v-3.162h-3.16z" mask="url(#o)"/>
            <path fill="#020303" d="M390.2 44.94h3.16v-3.162h-3.16zM399.675 44.94h3.158v-3.162h-3.158zM405.992 44.94h3.16v-3.162h-3.16zM412.307 44.94h3.162v-3.162h-3.162zM431.26 44.94h3.16v-3.162h-3.16zM358.614 48.096h3.16v-3.159h-3.16z" mask="url(#o)"/>
            <path fill="#020303" d="M361.77 48.096h3.16v-3.159h-3.16zM377.565 48.096h3.159v-3.159h-3.16zM383.88 48.096h3.162v-3.159h-3.162zM393.357 48.096h3.162v-3.159h-3.162zM399.675 48.096h3.158v-3.159h-3.158zM415.47 48.096h3.158v-3.159h-3.159z" mask="url(#o)"/>
            <path fill="#020303" d="M418.628 48.096h3.16v-3.159h-3.16z" mask="url(#o)"/>
            <path fill="#020303" d="M421.784 48.096h3.162v-3.159h-3.162zM424.946 48.096h3.159v-3.159h-3.159z" mask="url(#o)"/>
            <path fill="#020303" d="M428.102 48.096h3.159v-3.159h-3.159zM358.614 51.255h3.16v-3.159h-3.16zM374.406 51.255h3.162v-3.159h-3.162zM380.724 51.255h3.159v-3.159h-3.16zM387.042 51.255h3.159v-3.159h-3.16z" mask="url(#o)"/>
            <path fill="#020303" d="M390.2 51.255h3.16v-3.159h-3.16zM402.833 51.255h3.162v-3.159h-3.162z" mask="url(#o)"/>
            <path fill="#020303" d="M405.992 51.255h3.16v-3.159h-3.16zM415.47 51.255h3.158v-3.159h-3.159zM421.784 51.255h3.162v-3.159h-3.162zM431.26 51.255h3.16v-3.159h-3.16zM355.452 54.414h3.162v-3.162h-3.162zM358.614 54.414h3.16v-3.162h-3.16zM364.93 54.414h3.161v-3.162h-3.162zM368.091 54.414h3.159v-3.162h-3.159zM377.565 54.414h3.159v-3.162h-3.16zM383.88 54.414h3.162v-3.162h-3.162z" mask="url(#o)"/>
            <path fill="#020303" d="M387.042 54.414h3.159v-3.162h-3.16z" mask="url(#o)"/>
            <path fill="#020303" d="M390.2 54.414h3.16v-3.162h-3.16z" mask="url(#o)"/>
            <path fill="#020303" d="M393.357 54.414h3.162v-3.162h-3.162zM402.833 54.414h3.162v-3.162h-3.162zM415.47 54.414h3.158v-3.162h-3.159zM421.784 54.414h3.162v-3.162h-3.162zM424.946 54.414h3.159v-3.162h-3.159z" mask="url(#o)"/>
            <path fill="#020303" d="M428.102 54.414h3.159v-3.162h-3.159z" mask="url(#o)"/>
            <path fill="#020303" d="M431.26 54.414h3.16v-3.162h-3.16zM358.614 57.573h3.16v-3.159h-3.16zM371.247 57.573h3.159v-3.159h-3.159zM374.406 57.573h3.162v-3.159h-3.162zM380.724 57.573h3.159v-3.159h-3.16z" mask="url(#o)"/>
            <path fill="#020303" d="M383.88 57.573h3.162v-3.159h-3.162zM390.2 57.573h3.16v-3.159h-3.16z" mask="url(#o)"/>
            <path fill="#020303" d="M393.357 57.573h3.162v-3.159h-3.162zM399.675 57.573h3.158v-3.159h-3.158zM405.992 57.573h3.16v-3.159h-3.16zM412.307 57.573h3.162v-3.159h-3.162zM415.47 57.573h3.158v-3.159h-3.159zM431.26 57.573h3.16v-3.159h-3.16zM355.452 60.732h3.162v-3.159h-3.162zM368.091 60.732h3.159v-3.159h-3.159z" mask="url(#o)"/>
            <path fill="#020303" d="M371.247 60.732h3.159v-3.159h-3.159zM402.833 60.732h3.162v-3.159h-3.162zM418.628 60.732h3.16v-3.159h-3.16zM428.102 60.732h3.159v-3.159h-3.159zM355.452 63.891h3.162V60.73h-3.162zM358.614 63.891h3.16V60.73h-3.16z" mask="url(#o)"/>
            <path fill="#020303" d="M361.77 63.891h3.16V60.73h-3.16zM368.091 63.891h3.159V60.73h-3.159z" mask="url(#o)"/>
            <path fill="#020303" d="M371.247 63.891h3.159V60.73h-3.159zM374.406 63.891h3.162V60.73h-3.162zM380.724 63.891h3.159V60.73h-3.16zM390.2 63.891h3.16V60.73h-3.16z" mask="url(#o)"/>
            <path fill="#020303" d="M393.357 63.891h3.162V60.73h-3.162zM396.519 63.891h3.158V60.73h-3.158zM402.833 63.891h3.162V60.73h-3.162z" mask="url(#o)"/>
            <path fill="#020303" d="M405.992 63.891h3.16V60.73h-3.16z" mask="url(#o)"/>
            <path fill="#020303" d="M409.151 63.891h3.16V60.73h-3.16zM418.628 63.891h3.16V60.73h-3.16z" mask="url(#o)"/>
            <path fill="#020303" d="M421.784 63.891h3.162V60.73h-3.162zM424.946 63.891h3.159V60.73h-3.159z" mask="url(#o)"/>
            <path fill="#020303" d="M428.102 63.891h3.159V60.73h-3.159z" mask="url(#o)"/>
            <path fill="#020303" d="M431.26 63.891h3.16V60.73h-3.16zM355.452 67.05h3.162v-3.159h-3.162zM368.091 67.05h3.159v-3.159h-3.159zM380.724 67.05h3.159v-3.159h-3.16z" mask="url(#o)"/>
            <path fill="#020303" d="M383.88 67.05h3.162v-3.159h-3.162z" mask="url(#o)"/>
            <path fill="#020303" d="M387.042 67.05h3.159v-3.159h-3.16z" mask="url(#o)"/>
            <path fill="#020303" d="M390.2 67.05h3.16v-3.159h-3.16zM399.675 67.05h3.158v-3.159h-3.158zM409.151 67.05h3.16v-3.159h-3.16zM415.47 67.05h3.158v-3.159h-3.159zM421.784 67.05h3.162v-3.159h-3.162zM424.946 67.05h3.159v-3.159h-3.159zM431.26 67.05h3.16v-3.159h-3.16zM355.452 70.206h3.162v-3.159h-3.162zM364.93 70.206h3.161v-3.159h-3.162zM374.406 70.206h3.162v-3.159h-3.162zM380.724 70.206h3.159v-3.159h-3.16z" mask="url(#o)"/>
            <path fill="#020303" d="M383.88 70.206h3.162v-3.159h-3.162zM399.675 70.206h3.158v-3.159h-3.158zM405.992 70.206h3.16v-3.159h-3.16z" mask="url(#o)"/>
            <path fill="#020303" d="M409.151 70.206h3.16v-3.159h-3.16z" mask="url(#o)"/>
            <path fill="#020303" d="M412.307 70.206h3.162v-3.159h-3.162zM415.47 70.206h3.158v-3.159h-3.159z" mask="url(#o)"/>
            <path fill="#020303" d="M418.628 70.206h3.16v-3.159h-3.16zM424.946 70.206h3.159v-3.159h-3.159z" mask="url(#o)"/>
            <path fill="#020303" d="M428.102 70.206h3.159v-3.159h-3.159zM380.724 73.368h3.159v-3.162h-3.16z" mask="url(#o)"/>
            <path fill="#020303" d="M383.88 73.368h3.162v-3.162h-3.162zM390.2 73.368h3.16v-3.162h-3.16z" mask="url(#o)"/>
            <path fill="#020303" d="M393.357 73.368h3.162v-3.162h-3.162zM396.519 73.368h3.158v-3.162h-3.158zM405.992 73.368h3.16v-3.162h-3.16zM418.628 73.368h3.16v-3.162h-3.16zM424.946 73.368h3.159v-3.162h-3.159z" mask="url(#o)"/>
            <path fill="#020303" d="M428.102 73.368h3.159v-3.162h-3.159zM355.452 76.524h3.162v-3.16h-3.162zM358.614 76.524h3.16v-3.16h-3.16z" mask="url(#o)"/>
            <path fill="#020303" d="M361.77 76.524h3.16v-3.16h-3.16z" mask="url(#o)"/>
            <path fill="#020303" d="M364.93 76.524h3.161v-3.16h-3.162zM368.091 76.524h3.159v-3.16h-3.159z" mask="url(#o)"/>
            <path fill="#020303" d="M371.247 76.524h3.159v-3.16h-3.159zM374.406 76.524h3.162v-3.16h-3.162zM383.88 76.524h3.162v-3.16h-3.162zM390.2 76.524h3.16v-3.16h-3.16zM405.992 76.524h3.16v-3.16h-3.16zM412.307 76.524h3.162v-3.16h-3.162zM418.628 76.524h3.16v-3.16h-3.16zM431.26 76.524h3.16v-3.16h-3.16zM355.452 79.683h3.162v-3.16h-3.162z" mask="url(#o)"/>
            <path fill="#020303" d="M374.406 79.683h3.162v-3.16h-3.162zM393.357 79.683h3.162v-3.16h-3.162zM399.675 79.683h3.158v-3.16h-3.158zM402.833 79.683h3.162v-3.16h-3.162z" mask="url(#o)"/>
            <path fill="#020303" d="M405.992 79.683h3.16v-3.16h-3.16zM418.628 79.683h3.16v-3.16h-3.16zM428.102 79.683h3.159v-3.16h-3.159z" mask="url(#o)"/>
            <path fill="#020303" d="M431.26 79.683h3.16v-3.16h-3.16zM355.452 82.842h3.162v-3.16h-3.162zM361.77 82.842h3.16v-3.16h-3.16z" mask="url(#o)"/>
            <path fill="#020303" d="M364.93 82.842h3.161v-3.16h-3.162zM368.091 82.842h3.159v-3.16h-3.159zM374.406 82.842h3.162v-3.16h-3.162zM380.724 82.842h3.159v-3.16h-3.16z" mask="url(#o)"/>
            <path fill="#020303" d="M383.88 82.842h3.162v-3.16h-3.162zM393.357 82.842h3.162v-3.16h-3.162zM396.519 82.842h3.158v-3.16h-3.158z" mask="url(#o)"/>
            <path fill="#020303" d="M399.675 82.842h3.158v-3.16h-3.158zM402.833 82.842h3.162v-3.16h-3.162z" mask="url(#o)"/>
            <path fill="#020303" d="M405.992 82.842h3.16v-3.16h-3.16z" mask="url(#o)"/>
            <path fill="#020303" d="M409.151 82.842h3.16v-3.16h-3.16z" mask="url(#o)"/>
            <path fill="#020303" d="M412.307 82.842h3.162v-3.16h-3.162zM415.47 82.842h3.158v-3.16h-3.159z" mask="url(#o)"/>
            <path fill="#020303" d="M418.628 82.842h3.16v-3.16h-3.16zM428.102 82.842h3.159v-3.16h-3.159z" mask="url(#o)"/>
            <path fill="#020303" d="M431.26 82.842h3.16v-3.16h-3.16zM355.452 86h3.162V82.84h-3.162zM361.77 86h3.16V82.84h-3.16z" mask="url(#o)"/>
            <path fill="#020303" d="M364.93 86h3.161V82.84h-3.162zM368.091 86h3.159V82.84h-3.159zM374.406 86h3.162V82.84h-3.162zM380.724 86h3.159V82.84h-3.16z" mask="url(#o)"/>
            <path fill="#020303" d="M383.88 86h3.162V82.84h-3.162zM399.675 86h3.158V82.84h-3.158zM402.833 86h3.162V82.84h-3.162zM412.307 86h3.162V82.84h-3.162zM428.102 86h3.159V82.84h-3.159z" mask="url(#o)"/>
            <path fill="#020303" d="M431.26 86h3.16V82.84h-3.16zM355.452 89.16h3.162V86h-3.162zM361.77 89.16h3.16V86h-3.16z" mask="url(#o)"/>
            <path fill="#020303" d="M364.93 89.16h3.161V86h-3.162zM368.091 89.16h3.159V86h-3.159zM374.406 89.16h3.162V86h-3.162zM383.88 89.16h3.162V86h-3.162zM393.357 89.16h3.162V86h-3.162zM399.675 89.16h3.158V86h-3.158zM409.151 89.16h3.16V86h-3.16zM418.628 89.16h3.16V86h-3.16z" mask="url(#o)"/>
            <path fill="#020303" d="M421.784 89.16h3.162V86h-3.162zM424.946 89.16h3.159V86h-3.159z" mask="url(#o)"/>
            <path fill="#020303" d="M428.102 89.16h3.159V86h-3.159z" mask="url(#o)"/>
            <path fill="#020303" d="M431.26 89.16h3.16V86h-3.16zM355.452 92.316h3.162v-3.16h-3.162zM374.406 92.316h3.162v-3.16h-3.162zM380.724 92.316h3.159v-3.16h-3.16zM387.042 92.316h3.159v-3.16h-3.16zM399.675 92.316h3.158v-3.16h-3.158zM415.47 92.316h3.158v-3.16h-3.159z" mask="url(#o)"/>
            <path fill="#020303" d="M418.628 92.316h3.16v-3.16h-3.16zM424.946 92.316h3.159v-3.16h-3.159z" mask="url(#o)"/>
            <path fill="#020303" d="M428.102 92.316h3.159v-3.16h-3.159z" mask="url(#o)"/>
            <path fill="#020303" d="M431.26 92.316h3.16v-3.16h-3.16zM355.452 95.477h3.162v-3.161h-3.162zM358.614 95.477h3.16v-3.161h-3.16z" mask="url(#o)"/>
            <path fill="#020303" d="M361.77 95.477h3.16v-3.161h-3.16z" mask="url(#o)"/>
            <path fill="#020303" d="M364.93 95.477h3.161v-3.161h-3.162zM368.091 95.477h3.159v-3.161h-3.159z" mask="url(#o)"/>
            <path fill="#020303" d="M371.247 95.477h3.159v-3.161h-3.159zM374.406 95.477h3.162v-3.161h-3.162zM380.724 95.477h3.159v-3.161h-3.16zM396.519 95.477h3.158v-3.161h-3.158z" mask="url(#o)"/>
            <path fill="#020303" d="M399.675 95.477h3.158v-3.161h-3.158zM405.992 95.477h3.16v-3.161h-3.16z" mask="url(#o)"/>
            <path fill="#020303" d="M409.151 95.477h3.16v-3.161h-3.16zM421.784 95.477h3.162v-3.161h-3.162zM431.26 95.477h3.16v-3.161h-3.16z" mask="url(#o)"/>
        </g>
    </g>
</svg>
