<svg xmlns="http://www.w3.org/2000/svg" width="108" height="146" viewBox="0 0 108 146">
    <g fill="none" fill-rule="evenodd">
        <g stroke="#4A4A4A">
            <path stroke-linecap="round" stroke-width="3" d="M17.806 22.17H7.262c-1.949 0-3.815-.783-5.18-2.173-1.366-1.39-2.116-3.27-2.08-5.217V7.26C.011 3.256 3.255.01 7.261 0h89.25c4.006.01 7.25 3.255 7.26 7.26v7.52c.036 1.948-.714 3.828-2.08 5.217-1.365 1.39-3.231 2.173-5.18 2.172H86.154" transform="translate(2 2)"/>
            <path fill="#FFF" stroke-width="2" d="M13 10h78l6.421 72.47c.293 3.301-2.146 6.214-5.447 6.507-.176.015-.352.023-.53.023H12.556c-3.314 0-6-2.686-6-6 0-.177.008-.353.024-.53L13 10h0z" transform="translate(2 2)"/>
            <path stroke-linecap="round" stroke-width="4" d="M9 11L95 11" transform="translate(2 2)"/>
            <g stroke-linecap="round" stroke-width="2">
                <path d="M0 1.599L7 1.401M50.401 1.001L57.401.802M33.6 1.599L40.6 1.401M16.8 1.599L23.8 1.401" transform="translate(2 2) matrix(0 1 1 0 24 11)"/>
            </g>
        </g>
        <g fill="#4A4A4A">
            <path fill-opacity=".8" d="M7.224 6.63L28.417.177c.38-.115.786-.115 1.166 0L50.776 6.63c.742.226 1.286.86 1.397 1.628l.384 2.667c.158 1.093-.601 2.107-1.694 2.265-.283.04-.571.02-.845-.06L29.56 7.163c-.366-.106-.754-.106-1.12 0L7.982 13.13c-1.06.31-2.17-.3-2.48-1.36-.08-.274-.1-.562-.06-.845l.385-2.667c.11-.768.655-1.402 1.397-1.628z" transform="translate(2 2) translate(23 100)"/>
            <path fill-opacity=".4" d="M4.31 21.66l24.17-6.52c.34-.092.7-.092 1.04 0l24.17 6.52c.768.206 1.34.848 1.457 1.634l.406 2.715c.163 1.093-.59 2.11-1.682 2.274-.266.04-.538.026-.798-.042l-23.571-6.11c-.33-.086-.675-.086-1.004 0L4.927 28.24c-1.07.277-2.16-.365-2.438-1.434-.067-.26-.082-.532-.042-.798l.406-2.715c.117-.786.69-1.428 1.457-1.635z" transform="translate(2 2) translate(23 100)"/>
            <path fill-opacity=".1" d="M2.339 36.676l26.175-6.554c.32-.08.653-.08.972 0l26.175 6.554c.785.196 1.374.845 1.493 1.645l.409 2.744c.162 1.092-.591 2.11-1.684 2.273-.254.038-.514.026-.764-.034l-25.646-6.19c-.308-.075-.63-.075-.938 0l-25.646 6.19C1.81 43.563.73 42.903.47 41.829c-.06-.25-.072-.51-.034-.764l.41-2.744c.118-.8.707-1.449 1.492-1.645z" transform="translate(2 2) translate(23 100)"/>
        </g>
        <path fill="#4A4A4A" d="M75.237 76.192c-.009.202.09.197.298.163.747-.122 1.496-.233 2.243-.35 1.26-.196 2.515-.394 3.838-.603-2.152-.585-4.218-1.152-6.304-1.73m-3.907-4.45c1.493.504 2.96.994 4.439 1.484 2.991.978 6.033 1.957 9.126 2.934.885.277 1.29.702 1.339 1.416.05.756.095 1.512.152 2.268.01.132-.035.182-.22.21-4.988.768-10.038 1.541-15.152 2.314-.353.053-.353.053-.337-.212.049-.776.102-1.552.142-2.328.006-.135.057-.183.243-.208.627-.086 1.25-.193 1.874-.283.172-.025.24-.068.245-.209.042-1.157.093-2.315.15-3.472.006-.125-.046-.179-.193-.218-.61-.164-1.216-.336-1.82-.507-.095-.027-.19-.042-.182-.158m1.427-12.306c.864.18 1.737.343 2.627.516-.272.5-.543.989-.698 1.516-.237.8-.356 1.603-.165 2.412.064.268.19.515.398.724.404.402 1.062.425 1.524.053.386-.311.631-.702.864-1.097.364-.621.741-1.23 1.25-1.77 1.477-1.595 3.577-1.303 4.907-.44 1.086.696 1.706 1.668 2.066 2.766.495 1.483.455 2.946-.034 4.385-.06.176-.148.195-.355.156-.927-.172-1.855-.327-2.801-.493.216-.444.392-.89.481-1.358.124-.658.165-1.318-.044-1.98-.072-.226-.185-.437-.362-.622-.446-.464-1.04-.473-1.478-.02-.347.355-.577.771-.825 1.18-.344.563-.695 1.124-1.176 1.621-1.028 1.048-2.36 1.352-3.904 1.042-1.644-.333-2.585-1.273-3.097-2.541-.452-1.147-.453-2.343-.25-3.556.131-.79.348-1.564.692-2.315m.032-6.424c3.675.831 7.414 1.66 11.215 2.49.469.1.937.212 1.41.302.147.028.195.078.204.229.06 1.034.127 2.068.204 3.103.014.183-.059.187-.202.157-1.537-.322-3.065-.643-4.583-.964-2.816-.6-5.598-1.203-8.35-1.793-.246-.053-.336-.136-.303-.407.057-.467.069-.938.1-1.407.034-.517.075-1.035.097-1.552m11.633-14.983c.093.038.234-.023.248.206.11 1.813.24 3.626.348 5.439.045.766-.39 1.347-1.093 1.491-2.156.44-4.335.874-6.534 1.31l-.317.067c.55.232 1.047.441 1.547.649 2.158.887 4.356 1.775 6.599 2.655.168.066.223.148.232.325.056.99.121 1.978.194 2.967.014.19 0 .25-.217.163-4.2-1.72-8.258-3.436-12.171-5.147-.12-.053-.147-.12-.138-.247.072-1.034.14-2.068.203-3.102.009-.144.047-.2.187-.239 3.122-.857 6.182-1.726 9.184-2.582.446-.128.744-.4.92-.868.347-.937.539-1.926.688-2.93" transform="translate(2 2)"/>
    </g>
</svg>
