<svg xmlns="http://www.w3.org/2000/svg" width="108" height="146" viewBox="0 0 108 146">
    <g fill="none" fill-rule="evenodd">
        <path stroke="#4A4A4A" stroke-linecap="round" stroke-width="3" d="M19.806 24.17H9.262a7.26 7.26 0 0 1-7.26-7.39V9.26A7.279 7.279 0 0 1 9.261 2h89.25a7.279 7.279 0 0 1 7.26 7.26v7.52a7.26 7.26 0 0 1-7.26 7.39H88.154"/>
        <path fill="#FFF" stroke="#4A4A4A" stroke-width="2" d="M15 12h78l6.421 72.47A6 6 0 0 1 93.445 91h-78.89a6 6 0 0 1-5.976-6.53L15 12z"/>
        <path stroke="#4A4A4A" stroke-linecap="round" stroke-width="4" d="M11 13h86"/>
        <path fill="#4A4A4A" fill-rule="nonzero" d="M54.903 41l.208 2.963L55.138 61h-2.683l.364-20h2.084zm-5.76 0l.08 2.926L48.4 61H45.7l1.36-20h2.084zm-4.835 2.722c8.496 0 9.115 10.963 15.045 10.963 1.08.055 2.112-.342 2.827-1.092.707-.75 1.03-1.78.897-2.834a6.713 6.713 0 0 0-3.063-5.074l2.385-2.148c2.466 1.641 4.154 4.423 4.443 7.407.324 2.1-.274 4.154-1.677 5.648-1.438 1.495-3.546 2.29-5.77 2.186-8.815 0-9.337-10.963-15.67-10.963-1.16-.06-2.344.418-3.241 1.305-.908.888-1.434 2.093-1.423 3.287-.13 2.443.831 4.7 2.68 6.223l-3.51 1.851c-2.283-2.016-3.346-4.956-2.982-8.092.835-5.389 4.265-8.74 9.065-8.74l-.006.073z"/>
        <path stroke="#4A4A4A" stroke-linecap="round" stroke-width="2" d="M57.692 23l.199 7"/>
        <path stroke="#4A4A4A" stroke-linecap="round" d="M51.187 23l-.268 7"/>
        <path stroke="#4A4A4A" stroke-linecap="round" stroke-width="2" d="M58.999 69l.199 7"/>
        <path stroke="#4A4A4A" stroke-linecap="round" d="M49.427 69l-.268 7"/>
        <g fill="#4A4A4A">
            <path fill-opacity=".8" d="M32.224 108.63l21.193-6.453a2 2 0 0 1 1.166 0l21.193 6.453a2 2 0 0 1 1.397 1.628l.384 2.667a2 2 0 0 1-2.54 2.205l-20.457-5.967a2 2 0 0 0-1.12 0l-20.458 5.967a2 2 0 0 1-2.54-2.205l.385-2.667a2 2 0 0 1 1.397-1.628z"/>
            <path fill-opacity=".4" d="M29.31 123.66l24.17-6.52a2 2 0 0 1 1.04 0l24.17 6.52a2 2 0 0 1 1.457 1.634l.406 2.715a2 2 0 0 1-2.48 2.232l-23.571-6.11a2 2 0 0 0-1.004 0l-23.571 6.11a2 2 0 0 1-2.48-2.232l.406-2.715a2 2 0 0 1 1.457-1.635z"/>
            <path fill-opacity=".1" d="M27.339 138.676l26.175-6.554a2 2 0 0 1 .972 0l26.175 6.554a2 2 0 0 1 1.493 1.645l.409 2.744a2 2 0 0 1-2.448 2.239l-25.646-6.19a2 2 0 0 0-.938 0l-25.646 6.19a2 2 0 0 1-2.448-2.24l.41-2.743a2 2 0 0 1 1.492-1.645z"/>
        </g>
    </g>
</svg>
