<svg xmlns="http://www.w3.org/2000/svg" width="390" height="305" viewBox="0 0 390 305">
    <path fill="#F7F7F7" fill-rule="evenodd" d="M286.224 223.818c-25.552 48.094-76.08 80.834-134.24 80.834C68.046 304.652 0 236.454 0 152.326 0 68.2 68.046 0 151.984 0c58.16 0 108.688 32.74 134.24 80.834h.006l.026.06a151.897 151.897 0 0 1 3.3 6.602c10.393 17.937 29.768 29.998 51.953 29.998 18.782 0 35.55-8.644 46.558-22.18v114.025c-11.008-13.536-27.776-22.18-46.558-22.18-22.185 0-41.56 12.06-51.952 29.997a151.897 151.897 0 0 1-3.301 6.602l-.026.06h-.006z"/>
</svg>
