<svg xmlns="http://www.w3.org/2000/svg" width="93" height="72" viewBox="0 0 93 72">
    <g fill="none" fill-rule="evenodd" stroke="#000" stroke-width="1.491">
        <path stroke-linecap="round" stroke-linejoin="round" d="M49.075 34.558a9889.95 9889.95 0 0 0 8.64 17.561c.755 1.98 2.93 2.828 4.868 1.887l13.824-6.708c.972-.472 2.196-.136 2.752.78l1.15 1.899c.547.903 1.756 1.24 2.71.748l3.974-2.054c.949-.49 1.28-1.602.713-2.53L74.876 25.21c-.554-.904-.433-2.311.242-3.109l1.379-1.628c.688-.813.626-2.09-.113-2.827L63.795 5.09c-.75-.748-2.209-1.226-3.28-1.065l-13.8 2.079c-1.062.16-2.243 1.084-2.646 2.083l-2.817 6.988c-.4.991-.359 2.556.108 3.532l4.093 8.36"/>
        <path d="M42.823 9.05L28.361 4.38 24.484 3.13c-.883-.285-2.3-.225-3.153.13l-8.97 3.727a1.632 1.632 0 0 0-.868 2.176l.415.927a1.793 1.793 0 0 0 2.246.932l7.613-2.92c.862-.33 2.284-.365 3.163-.081L41.2 13.274l1.622-4.224zM57.004 33.86l4.43 12.72c.465 1.336 1.854 1.928 3.143 1.34l9.537-4.344c1.286-.586 1.727-2 1.005-3.213l-6.897-11.571c-.755-1.267-2.486-1.809-3.832-1.2l-5.826 2.635c-1.34.606-2.044 2.245-1.56 3.633z"/>
        <path stroke-linecap="round" d="M85.443 50.022s5.196 3.531 2.89 15.867"/>
        <path d="M12.001 44.38c5.336 0 9.662-4.21 9.662-9.403 0-5.192-8.59-15.159-8.59-15.159-.592-.715-1.55-.723-2.143 0 0 0-8.59 9.967-8.59 15.16 0 5.192 4.325 9.401 9.661 9.401z"/>
        <path fill="#FFF" stroke-linecap="round" d="M12.285 23.979s-4.08 5.327-5.52 8.205"/>
    </g>
</svg>
