<svg xmlns="http://www.w3.org/2000/svg" xmlns:xlink="http://www.w3.org/1999/xlink" width="660" height="60" viewBox="0 0 660 60">
    <defs>
        <path id="a" d="M601.853 40.405A7.503 7.503 0 0 0 594 35.028V35h-48v.028a7.503 7.503 0 0 0-7.853 5.377C533.917 51.845 522.91 60 510 60c-12.91 0-23.916-8.155-28.147-19.595A7.503 7.503 0 0 0 474 35.028V35h-48v.028a7.503 7.503 0 0 0-7.853 5.377C413.917 51.845 402.91 60 390 60c-12.91 0-23.916-8.155-28.147-19.595A7.503 7.503 0 0 0 354 35.028V35h-48v.028a7.503 7.503 0 0 0-7.853 5.377C293.917 51.845 282.91 60 270 60c-12.91 0-23.916-8.155-28.147-19.595A7.503 7.503 0 0 0 234 35.028V35h-48v.028a7.503 7.503 0 0 0-7.853 5.377C173.917 51.845 162.91 60 150 60c-12.91 0-23.916-8.155-28.147-19.595A7.503 7.503 0 0 0 114 35.028V35H66v.028a7.503 7.503 0 0 0-7.853 5.377C53.917 51.845 42.91 60 30 60 13.431 60 0 46.569 0 30 0 13.431 13.431 0 30 0c12.91 0 23.916 8.155 28.147 19.595A7.503 7.503 0 0 0 66 24.972V25h48v-.028a7.503 7.503 0 0 0 7.853-5.377C126.083 8.155 137.09 0 150 0c12.91 0 23.916 8.155 28.147 19.595A7.503 7.503 0 0 0 186 24.972V25h48v-.028a7.503 7.503 0 0 0 7.853-5.377C246.083 8.155 257.09 0 270 0c12.91 0 23.916 8.155 28.147 19.595A7.503 7.503 0 0 0 306 24.972V25h48v-.028a7.503 7.503 0 0 0 7.853-5.377C366.083 8.155 377.09 0 390 0c12.91 0 23.916 8.155 28.147 19.595A7.503 7.503 0 0 0 426 24.972V25h48v-.028a7.503 7.503 0 0 0 7.853-5.377C486.083 8.155 497.09 0 510 0c12.91 0 23.916 8.155 28.147 19.595A7.503 7.503 0 0 0 546 24.972V25h48v-.028a7.503 7.503 0 0 0 7.853-5.377C606.083 8.155 617.09 0 630 0c16.569 0 30 13.431 30 30 0 16.569-13.431 30-30 30-12.91 0-23.916-8.155-28.147-19.595zM30 50c11.046 0 20-8.954 20-20s-8.954-20-20-20-20 8.954-20 20 8.954 20 20 20zm240 0c11.046 0 20-8.954 20-20s-8.954-20-20-20-20 8.954-20 20 8.954 20 20 20zm-120 0c11.046 0 20-8.954 20-20s-8.954-20-20-20-20 8.954-20 20 8.954 20 20 20zm240 0c11.046 0 20-8.954 20-20s-8.954-20-20-20-20 8.954-20 20 8.954 20 20 20zm120 0c11.046 0 20-8.954 20-20s-8.954-20-20-20-20 8.954-20 20 8.954 20 20 20zm120 0c11.046 0 20-8.954 20-20s-8.954-20-20-20-20 8.954-20 20 8.954 20 20 20z"/>
    </defs>
    <use fill="#E6E6E6" fill-rule="evenodd" xlink:href="#a"/>
</svg>
