<svg xmlns="http://www.w3.org/2000/svg" width="659" height="70" viewBox="0 0 659 70">
    <g fill="#FFF" fill-rule="evenodd">
        <path d="M600.82 63.66c-11.915 0-22.069-7.553-25.972-18.146-.835-2.89-3.494-5.002-6.646-5.002-.2 0-.402.008-.599.023v-.023h-44.288v.023a7.809 7.809 0 0 0-.6-.023c-3.152 0-5.81 2.113-6.649 5.002-3.903 10.593-14.057 18.145-25.971 18.145-11.91 0-22.065-7.552-25.968-18.145-.838-2.89-3.497-5.002-6.65-5.002-.2 0-.401.008-.598.023v-.023H412.59v.023a7.809 7.809 0 0 0-.599-.023c-3.152 0-5.811 2.113-6.646 5.002-3.903 10.593-14.06 18.145-25.97 18.145-11.915 0-22.07-7.552-25.972-18.145-.835-2.89-3.498-5.002-6.646-5.002-.2 0-.402.008-.6.023v-.023h-44.291v.023a7.736 7.736 0 0 0-.6-.023c-3.148 0-5.807 2.113-6.645 5.002-3.903 10.593-14.057 18.145-25.971 18.145-11.91 0-22.065-7.552-25.972-18.145-.834-2.89-3.493-5.002-6.645-5.002-.201 0-.402.008-.6.023v-.023h-44.288v.023a7.809 7.809 0 0 0-.6-.023c-3.151 0-5.81 2.113-6.649 5.002-3.903 10.593-14.057 18.145-25.967 18.145-11.914 0-22.068-7.552-25.971-18.145-.839-2.89-3.498-5.002-6.646-5.002-.205 0-.402.008-.6.023v-.023H80.422v.023a7.809 7.809 0 0 0-.6-.023c-3.152 0-5.81 2.113-6.645 5.002-3.903 10.593-14.057 18.145-25.972 18.145-15.286 0-27.682-12.435-27.682-27.78 0-15.34 12.396-27.775 27.682-27.775 11.915 0 22.069 7.552 25.972 18.142.834 2.893 3.493 5.005 6.645 5.005.201 0 .402-.008.6-.027v.027h44.292v-.027c.197.02.394.027.599.027 3.148 0 5.807-2.112 6.646-5.005 3.903-10.59 14.057-18.142 25.97-18.142 11.911 0 22.065 7.552 25.968 18.142.839 2.893 3.498 5.005 6.65 5.005.2 0 .402-.008.6-.027v.027h44.287v-.027c.198.02.399.027.6.027 3.152 0 5.81-2.112 6.645-5.005 3.907-10.59 14.061-18.142 25.972-18.142 11.914 0 22.068 7.552 25.971 18.142.838 2.893 3.497 5.005 6.645 5.005.205 0 .403-.008.6-.027v.027h44.292v-.027c.197.02.398.027.6.027 3.147 0 5.81-2.112 6.645-5.005 3.903-10.59 14.057-18.142 25.971-18.142 11.91 0 22.068 7.552 25.971 18.142.835 2.893 3.494 5.005 6.646 5.005.201 0 .402-.008.6-.027v.027h44.288v-.027c.197.02.398.027.599.027 3.152 0 5.81-2.112 6.65-5.005 3.902-10.59 14.056-18.142 25.967-18.142 11.914 0 22.068 7.552 25.971 18.142.838 2.893 3.497 5.005 6.65 5.005.2 0 .402-.008.599-.027v.027h44.288v-.027c.197.02.398.027.6.027 3.151 0 5.81-2.112 6.645-5.005 3.903-10.59 14.057-18.142 25.971-18.142 15.286 0 27.682 12.436 27.682 27.776 0 15.344-12.396 27.78-27.682 27.78zM0 70h658.103V0H-.001v70z"/>
        <path d="M490.5 17c-10.218 0-18.5 8.282-18.5 18.5S480.282 54 490.5 54 509 45.718 509 35.5 500.718 17 490.5 17M600.5 17c-10.218 0-18.5 8.282-18.5 18.5S590.282 54 600.5 54 619 45.718 619 35.5 610.718 17 600.5 17M157.5 17c-10.218 0-18.5 8.282-18.5 18.5S147.282 54 157.5 54 176 45.718 176 35.5 167.718 17 157.5 17M268.5 17c-10.218 0-18.5 8.282-18.5 18.5S258.282 54 268.5 54 287 45.718 287 35.5 278.718 17 268.5 17M47.5 17C37.282 17 29 25.282 29 35.5S37.282 54 47.5 54 66 45.718 66 35.5 57.718 17 47.5 17M379.5 17c-10.218 0-18.5 8.282-18.5 18.5S369.282 54 379.5 54 398 45.718 398 35.5 389.718 17 379.5 17"/>
    </g>
</svg>
